<?xml version="1.0" encoding="UTF-8"?>
<!DOCTYPE svg PUBLIC "-//W3C//DTD SVG 1.1//EN" "http://www.w3.org/Graphics/SVG/1.1/DTD/svg11.dtd">
<svg xmlns="http://www.w3.org/2000/svg" version="1.1" width="512px" height="512px" style="shape-rendering:geometricPrecision; text-rendering:geometricPrecision; image-rendering:optimizeQuality; fill-rule:evenodd; clip-rule:evenodd" xmlns:xlink="http://www.w3.org/1999/xlink">
<g><path style="opacity:0.992" fill="#010201" d="M 225.5,-0.5 C 245.5,-0.5 265.5,-0.5 285.5,-0.5C 379.898,14.4363 448.065,64.7696 490,150.5C 501.734,177.106 508.9,204.772 511.5,233.5C 511.5,249.167 511.5,264.833 511.5,280.5C 498.453,379.371 446.786,449.871 356.5,492C 330.69,502.62 304.024,509.12 276.5,511.5C 262.167,511.5 247.833,511.5 233.5,511.5C 163.382,504.521 105.215,474.521 59,421.5C 52.7786,413.612 46.9453,405.445 41.5,397C 42.9901,395.228 44.6568,395.061 46.5,396.5C 56.7867,395.69 67.12,395.19 77.5,395C 84.635,377.732 92.3017,360.732 100.5,344C 137.5,343.333 174.5,343.333 211.5,344C 218.858,360.91 225.525,378.077 231.5,395.5C 251.5,395.5 271.5,395.5 291.5,395.5C 290.978,392.432 290.145,389.432 289,386.5C 244.058,282.95 199.391,179.283 155,75.5C 113.528,174.248 71.8616,272.915 30,371.5C 29.2825,372.451 28.4491,372.617 27.5,372C 12.6558,342.779 3.32242,311.946 -0.5,279.5C -0.5,263.5 -0.5,247.5 -0.5,231.5C 10.795,141.7 55.4616,74.1998 133.5,29C 162.594,14.0233 193.261,4.18992 225.5,-0.5 Z"/></g>
<g><path style="opacity:1" fill="#fdfdfd" d="M 372.5,101.5 C 421.266,99.6311 458.099,119.631 483,161.5C 491.646,176.125 497.48,191.792 500.5,208.5C 482.821,208.833 465.154,208.5 447.5,207.5C 440.838,187.957 428.838,172.79 411.5,162C 385.034,150.143 362.534,155.31 344,177.5C 328.062,199.321 320.562,223.821 321.5,251C 321.197,277.088 328.697,300.588 344,321.5C 365.382,345.227 389.882,349.061 417.5,333C 431.345,321.81 441.345,307.81 447.5,291C 465.497,290.5 483.497,290.333 501.5,290.5C 494.134,329.428 474.134,359.928 441.5,382C 389.324,407.942 343.49,399.442 304,356.5C 273.692,319.305 261.359,276.638 267,228.5C 272.032,183.577 292.198,147.411 327.5,120C 341.352,110.779 356.352,104.612 372.5,101.5 Z"/></g>
<g><path style="opacity:1" fill="#060606" d="M 153.5,196.5 C 154.496,196.414 155.329,196.748 156,197.5C 168.531,228.597 180.365,259.93 191.5,291.5C 166.833,291.5 142.167,291.5 117.5,291.5C 129.5,259.833 141.5,228.167 153.5,196.5 Z"/></g>
</svg>
